<svg width="1920" height="1080" viewBox="0 0 1920 1080" fill="none" xmlns="http://www.w3.org/2000/svg">
  <path d="M1920 0H0V1080H1920V0Z" fill="#1A237E"/>
  <path d="M1920 0H0V1080H1920V0Z" fill="url(#paint0_radial_1_2)" fill-opacity="0.2"/>
  <g opacity="0.6">
    <path d="M1012.5 540C1012.5 540 1012.5 540 1012.5 540C1012.5 540 1012.5 540 1012.5 540Z" fill="#60A5FA"/>
    <path d="M1012.5 540C1012.5 540 1012.5 540 1012.5 540C1012.5 540 1012.5 540 1012.5 540Z" stroke="#60A5FA" stroke-width="3"/>
  </g>
  <g opacity="0.6">
    <path d="M907.5 540C907.5 540 907.5 540 907.5 540C907.5 540 907.5 540 907.5 540Z" fill="#60A5FA"/>
    <path d="M907.5 540C907.5 540 907.5 540 907.5 540C907.5 540 907.5 540 907.5 540Z" stroke="#60A5FA" stroke-width="3"/>
  </g>
  <path opacity="0.3" d="M1012.5 435L907.5 540" stroke="#60A5FA" stroke-width="3"/>
  <path opacity="0.3" d="M1012.5 645L907.5 540" stroke="#60A5FA" stroke-width="3"/>
  <path opacity="0.3" d="M802.5 540H907.5" stroke="#60A5FA" stroke-width="3"/>
  <path opacity="0.3" d="M1117.5 540H1012.5" stroke="#60A5FA" stroke-width="3"/>
  <circle cx="907.5" cy="540" r="7.5" fill="#60A5FA"/>
  <circle cx="1012.5" cy="435" r="7.5" fill="#60A5FA"/>
  <circle cx="1012.5" cy="645" r="7.5" fill="#60A5FA"/>
  <circle cx="802.5" cy="540" r="7.5" fill="#60A5FA"/>
  <circle cx="1117.5" cy="540" r="7.5" fill="#60A5FA"/>
  <defs>
    <radialGradient id="paint0_radial_1_2" cx="0" cy="0" r="1" gradientUnits="userSpaceOnUse" gradientTransform="translate(960 540) rotate(90) scale(540 960)">
      <stop stop-color="#283593"/>
      <stop offset="1" stop-color="#283593" stop-opacity="0"/>
    </radialGradient>
  </defs>
</svg>
